grf
version=1
nRows=6
nColumns=37
inDegrees=no
endheader
time	ground_force_1_vx	ground_force_1_vy	ground_force_1_vz	ground_force_1_px	ground_force_1_py	ground_force_1_pz	ground_moment_1_mx	ground_moment_1_my	ground_moment_1_mz	ground_force_2_vx	ground_force_2_vy	ground_force_2_vz	ground_force_2_px	ground_force_2_py	ground_force_2_pz	ground_moment_2_mx	ground_moment_2_my	ground_moment_2_mz	ground_force_3_vx	ground_force_3_vy	ground_force_3_vz	ground_force_3_px	ground_force_3_py	ground_force_3_pz	ground_moment_3_mx	ground_moment_3_my	ground_moment_3_mz	ground_force_4_vx	ground_force_4_vy	ground_force_4_vz	ground_force_4_px	ground_force_4_py	ground_force_4_pz	ground_moment_4_mx	ground_moment_4_my	ground_moment_4_mz
      2.62000000	      0.00000000	     -0.00000000	      0.00000000	      0.00000000	      0.00000000	      0.00000000	      0.00000000	      0.00000000	      0.00000000	      8.12730503	    116.12777710	   -655.43853760	   -336.66833794	  -1205.56665771	      0.00000000	      0.00000000	      0.00000000	   8245.98570177	     -9.80165694	    -24.27945433	   -231.80105591	   -261.90537158	   -590.01654594	      0.00000000	     -0.00000000	     -0.00000000	  -4167.45907966	      0.00000000	     -0.00000000	      0.00000000	      0.00000000	      0.00000000	      0.00000000	      0.00000000	      0.00000000	      0.00000000
      2.63000000	      0.00000000	     -0.00000000	      0.00000000	      0.00000000	      0.00000000	      0.00000000	      0.00000000	      0.00000000	      0.00000000	      2.99020934	    112.65489960	   -643.06738281	   -328.62144780	  -1209.15670439	      0.00000000	      0.00000000	      0.00000000	   8555.05290579	    -14.45070865	    -24.79105823	   -256.13320923	   -259.83063719	   -589.65514788	      0.00000000	      0.00000000	     -0.00000000	  -5068.17545820	      0.00000000	     -0.00000000	      0.00000000	      0.00000000	      0.00000000	      0.00000000	      0.00000000	      0.00000000	      0.00000000
      2.64000000	      0.00000000	     -0.00000000	      0.00000000	      0.00000000	      0.00000000	      0.00000000	      0.00000000	      0.00000000	      0.00000000	     -2.72802472	    110.19327545	   -625.55590820	   -319.71415893	  -1210.82805138	      0.00000000	      0.00000000	      0.00000000	   8559.60166903	    -18.88612593	    -26.03642871	   -274.21417236	   -259.00470561	   -592.55667109	      0.00000000	      0.00000000	     -0.00000000	  -5740.41948644	      0.00000000	     -0.00000000	      0.00000000	      0.00000000	      0.00000000	      0.00000000	      0.00000000	      0.00000000	      0.00000000
      2.65000000	      0.00000000	     -0.00000000	      0.00000000	      0.00000000	      0.00000000	      0.00000000	      0.00000000	      0.00000000	      0.00000000	     -8.27754307	    108.91735840	   -606.91387939	   -309.80271342	  -1212.99784728	      0.00000000	      0.00000000	      0.00000000	   8474.21356819	    -22.72879266	    -27.21245186	   -294.18661499	   -258.47518026	   -591.81594439	      0.00000000	      0.00000000	     -0.00000000	  -6642.32569277	      0.00000000	     -0.00000000	      0.00000000	      0.00000000	      0.00000000	      0.00000000	      0.00000000	      0.00000000	      0.00000000
      2.66000000	      0.00000000	     -0.00000000	      0.00000000	      0.00000000	      0.00000000	      0.00000000	      0.00000000	      0.00000000	      0.00000000	    -13.53107738	    107.82852936	   -591.06085205	   -299.89491926	  -1215.26619658	      0.00000000	      0.00000000	      0.00000000	   7795.63552085	    -26.86029697	    -30.01987604	   -313.11395264	   -258.02302633	   -593.72115464	      0.00000000	      0.00000000	     -0.00000000	  -6936.07391177	      0.00000000	     -0.00000000	      0.00000000	      0.00000000	      0.00000000	      0.00000000	      0.00000000	      0.00000000	      0.00000000
      2.67000000	      0.00000000	     -0.00000000	      0.00000000	      0.00000000	      0.00000000	      0.00000000	      0.00000000	      0.00000000	      0.00000000	    -18.65474129	    106.28237915	   -576.66564941	   -289.65925430	  -1218.74695330	      0.00000000	      0.00000000	      0.00000000	   6834.43469182	    -29.41342279	    -35.04451495	   -330.68453979	   -257.59577490	   -592.52458563	      0.00000000	     -0.00000000	     -0.00000000	  -7218.74462094	      0.00000000	     -0.00000000	      0.00000000	      0.00000000	      0.00000000	      0.00000000	      0.00000000	      0.00000000	      0.00000000
